<svg width="71" height="53" viewBox="0 0 71 53" fill="none" xmlns="http://www.w3.org/2000/svg">
<path d="M4.6 52.576C3.576 52.576 2.328 52.384 0.856 52C1.368 45.216 1.624 35.552 1.624 23.008C1.624 11.616 1.272 4.416 0.568 1.408C2.552 1.024 4.184 0.831995 5.464 0.831995C6.936 0.831995 8.792 1.024 11.032 1.408C13.528 5.952 17.08 12.224 21.688 20.224C26.296 28.224 30.392 35.168 33.976 41.056C34.104 33.504 34.168 27.552 34.168 23.2C34.168 11.296 33.816 4.032 33.112 1.408C34.392 1.024 35.64 0.831995 36.856 0.831995C38.008 0.831995 39.288 1.024 40.696 1.408C40.504 4.736 40.312 9.216 40.12 14.848C39.992 20.416 39.928 25.6 39.928 30.4C39.928 41.792 40.28 48.992 40.984 52C39.96 52.384 38.328 52.576 36.088 52.576C34.68 52.576 32.792 52.384 30.424 52C27.992 47.584 24.472 41.376 19.864 33.376C15.256 25.312 11.16 18.336 7.576 12.448C7.384 18.08 7.288 24 7.288 30.208C7.288 41.728 7.64 48.992 8.344 52C7.192 52.384 5.944 52.576 4.6 52.576ZM35.7168 52.288C36.1648 45.632 36.4528 40.608 36.5808 37.216C36.7088 33.76 36.7728 29.088 36.7728 23.2C36.7728 12.64 36.2288 5.376 35.1408 1.408C38.5328 1.856 43.6848 2.08 50.5968 2.08C59.1088 2.08 65.7008 1.856 70.3728 1.408C70.3728 3.136 70.1808 4.992 69.7968 6.976C69.4128 8.96 68.9328 10.336 68.3568 11.104C66.8208 10.272 64.8368 9.632 62.4048 9.184C59.9728 8.736 57.4768 8.512 54.9168 8.512C51.5248 8.512 48.3888 8.768 45.5088 9.28C45.2528 14.656 45.0928 19.456 45.0288 23.68L47.4288 23.776C49.8608 23.904 51.6848 23.968 52.9008 23.968C55.9728 23.968 58.3088 23.904 59.9088 23.776C61.5728 23.584 63.3968 23.296 65.3808 22.912C65.6368 24.192 65.7648 25.376 65.7648 26.464C65.7648 27.36 65.6368 28.576 65.3808 30.112C58.3408 29.664 52.8368 29.44 48.8688 29.44C47.0128 29.44 45.7008 29.472 44.9328 29.536C44.9328 36.512 45.0608 41.408 45.3168 44.224C48.3888 44.864 51.7488 45.184 55.3968 45.184C58.2128 45.184 61.0288 44.96 63.8448 44.512C66.6608 44.064 68.9648 43.424 70.7568 42.592C70.7568 44.32 70.5648 46.208 70.1808 48.256C69.7968 50.24 69.3168 51.584 68.7408 52.288C64.6448 51.84 58.7568 51.616 51.0768 51.616C44.2288 51.616 39.1088 51.84 35.7168 52.288Z" fill="#3DBF8D"/>
</svg>
